<svg width="28" height="28" viewBox="0 0 28 28" fill="none" xmlns="http://www.w3.org/2000/svg">
<path d="M15.6121 14.0004L21.7171 7.95441C21.9167 7.75047 22.0377 7.48251 22.0587 7.19792C22.0798 6.91334 21.9995 6.63049 21.8321 6.39941C21.7389 6.26054 21.6151 6.14488 21.4702 6.06133C21.3253 5.97778 21.1632 5.92856 20.9963 5.91745C20.8294 5.90635 20.6622 5.93365 20.5076 5.99726C20.3529 6.06088 20.2148 6.15911 20.1041 6.28441L13.9991 12.3894L7.89407 6.28441C7.78329 6.15911 7.64526 6.06088 7.49058 5.99726C7.3359 5.93365 7.1687 5.90635 7.00182 5.91745C6.83494 5.92856 6.67283 5.97778 6.52795 6.06133C6.38306 6.14488 6.25927 6.26054 6.16607 6.39941C5.99877 6.6306 5.91865 6.91352 5.93987 7.19811C5.9611 7.48269 6.08232 7.7506 6.28207 7.95441L12.3871 14.0014L6.28207 20.0484C6.08247 20.2523 5.96144 20.5203 5.94039 20.8049C5.91935 21.0895 5.99964 21.3723 6.16707 21.6034C6.26027 21.7423 6.38406 21.8579 6.52895 21.9415C6.67383 22.025 6.83594 22.0743 7.00282 22.0854C7.1697 22.0965 7.3369 22.0692 7.49158 22.0056C7.64625 21.9419 7.78429 21.8437 7.89507 21.7184L14.0001 15.6134L20.1051 21.7184C20.2158 21.8437 20.3539 21.9419 20.5086 22.0056C20.6632 22.0692 20.8304 22.0965 20.9973 22.0854C21.1642 22.0743 21.3263 22.025 21.4712 21.9415C21.6161 21.8579 21.7399 21.7423 21.8331 21.6034C22.0005 21.3723 22.0808 21.0895 22.0597 20.8049C22.0387 20.5203 21.9177 20.2523 21.7181 20.0484L15.6121 14.0004Z" fill="#797980"/>
</svg>
