<svg width="11" height="7" viewBox="0 0 11 7" fill="none" xmlns="http://www.w3.org/2000/svg">
<path d="M5.55506 4.3712L1.43306 0.249201C1.3582 0.164629 1.26495 0.0983398 1.16048 0.0554254C1.05601 0.012511 0.943094 -0.00588722 0.830403 0.0016448C0.717712 0.00917682 0.608248 0.0424389 0.510417 0.0988747C0.412586 0.155311 0.328993 0.23342 0.266057 0.327202C0.153171 0.483322 0.0990858 0.674313 0.113358 0.866441C0.127631 1.05857 0.209341 1.23947 0.344056 1.3772L5.01106 6.0052C5.08028 6.08064 5.16443 6.14087 5.25816 6.18208C5.35189 6.22328 5.45317 6.24456 5.55556 6.24456C5.65795 6.24456 5.75922 6.22328 5.85295 6.18208C5.94668 6.14087 6.03083 6.08064 6.10006 6.0052L10.7671 1.3772C10.9018 1.23947 10.9835 1.05857 10.9978 0.866442C11.012 0.674314 10.9579 0.483323 10.8451 0.327202C10.7821 0.23342 10.6985 0.155311 10.6007 0.0988752C10.5029 0.0424393 10.3934 0.00917724 10.2807 0.00164521C10.168 -0.00588682 10.0551 0.0125114 9.95063 0.0554258C9.84616 0.0983401 9.75291 0.164629 9.67806 0.249201L5.55506 4.3712Z" fill="white"/>
</svg>
