<svg width="23" height="22" viewBox="0 0 23 22" fill="none" xmlns="http://www.w3.org/2000/svg">
<path d="M17.5692 15.4428C18.9646 13.6468 19.591 11.3709 19.3112 9.11384C19.0529 7.11285 18.1167 5.2608 16.6586 3.86626C15.2006 2.47171 13.3087 1.61887 11.2982 1.44984C10.1583 1.33546 9.00697 1.44672 7.91003 1.77729C6.81309 2.10785 5.792 2.65123 4.90506 3.37641C4.01812 4.10159 3.28271 4.99436 2.7408 6.00376C2.19888 7.01315 1.8611 8.1194 1.74671 9.25934C1.63233 10.3993 1.7436 11.5506 2.07416 12.6475C2.40472 13.7445 2.9481 14.7656 3.67328 15.6525C4.39846 16.5394 5.29124 17.2748 6.30063 17.8168C7.31003 18.3587 8.41628 18.6965 9.55621 18.8108C11.8225 19.0912 14.1098 18.4882 15.9432 17.1268L19.6842 20.4368C19.7873 20.5499 19.9128 20.6403 20.0528 20.7021C20.1928 20.7639 20.3442 20.7959 20.4972 20.7959C20.6502 20.7959 20.8016 20.7639 20.9416 20.7021C21.0816 20.6403 21.2071 20.5499 21.3102 20.4368C21.4233 20.3338 21.5137 20.2082 21.5755 20.0682C21.6373 19.9282 21.6692 19.7769 21.6692 19.6238C21.6692 19.4708 21.6373 19.3195 21.5755 19.1795C21.5137 19.0395 21.4233 18.9139 21.3102 18.8108L17.5692 15.4428ZM11.7052 16.4878C10.697 16.6525 9.6639 16.5729 8.69276 16.2557C7.72162 15.9386 6.84074 15.393 6.12405 14.665C5.40736 13.9369 4.87577 13.0476 4.57391 12.0716C4.27204 11.0956 4.2087 10.0614 4.38921 9.05584C4.60236 7.76232 5.21552 6.56812 6.14251 5.64114C7.0695 4.71415 8.2637 4.10098 9.55721 3.88784C10.5664 3.70161 11.6057 3.76356 12.5855 4.06835C13.5654 4.37313 14.4565 4.91161 15.182 5.63738C15.9074 6.36315 16.4456 7.25444 16.7499 8.23445C17.0543 9.21445 17.1159 10.2538 16.9292 11.2628C16.6993 12.5648 16.0746 13.7645 15.1397 14.6993C14.2049 15.6342 13.0051 16.2589 11.7032 16.4888L11.7052 16.4878Z" fill="#EFEFEF"/>
</svg>
